<svg width="45" height="42" viewBox="0 0 45 42" fill="none" xmlns="http://www.w3.org/2000/svg">
<path d="M34.4999 35.9998C35.3257 36.0032 36.1365 35.7793 36.8436 35.3526C37.5506 34.926 38.1266 34.313 38.5085 33.5808C38.8904 32.8486 39.0635 32.0254 39.0088 31.2014C38.954 30.3774 38.6736 29.5844 38.1983 28.9091C37.7229 28.2339 37.0709 27.7024 36.3136 27.373C35.5563 27.0436 34.723 26.929 33.9049 27.0416C33.0868 27.1542 32.3155 27.4897 31.6754 28.0114C31.0352 28.5332 30.551 29.221 30.2758 29.9996H17.9994V31.4996C17.9994 32.983 17.5595 34.4331 16.7354 35.6665C15.9112 36.8999 14.7398 37.8613 13.3694 38.4289C11.9989 38.9966 10.4908 39.1451 9.03592 38.8558C7.58102 38.5664 6.2446 37.852 5.19567 36.8031C4.14675 35.7542 3.43242 34.4178 3.14302 32.9629C2.85362 31.508 3.00215 29.9999 3.56983 28.6294C4.1375 27.2589 5.09883 26.0875 6.33223 25.2634C7.56564 24.4393 9.01573 23.9994 10.4991 23.9994V20.9993C8.48648 20.9995 6.51628 21.5782 4.82315 22.6664C3.13003 23.7545 1.78531 25.3064 0.949125 27.1371C0.11294 28.9679 -0.17948 31.0004 0.106684 32.9926C0.392848 34.9848 1.24554 36.8528 2.56322 38.3742C3.88091 39.8955 5.60807 41.0061 7.53903 41.5737C9.47 42.1413 11.5234 42.142 13.4548 41.5758C15.3861 41.0095 17.114 39.9 18.4328 38.3796C19.7515 36.8591 20.6054 34.9917 20.893 32.9997H30.2758C30.5832 33.8752 31.1545 34.6338 31.911 35.1711C32.6675 35.7084 33.572 35.9979 34.4999 35.9998Z" fill="url(#paint0_linear_603_20)"/>
<path d="M34.4999 20.9993C33.1805 20.9993 31.8728 21.2471 30.6448 21.7298L25.8957 13.4196C26.6022 12.6023 26.9963 11.5611 27.0082 10.4809C27.0201 9.40058 26.6489 8.35102 25.9606 7.51837C25.2722 6.68571 24.3112 6.1238 23.248 5.93231C22.1847 5.74082 21.0881 5.93213 20.1525 6.47231C19.2169 7.01249 18.5029 7.86662 18.1371 8.88316C17.7713 9.8997 17.7775 11.0129 18.1544 12.0254C18.5314 13.0378 19.2548 13.884 20.1963 14.4138C21.1378 14.9437 22.2365 15.1228 23.2976 14.9196L29.4763 25.732L30.7783 24.9849C32.0651 24.2499 33.5408 23.9126 35.0191 24.0155C36.4974 24.1184 37.9121 24.6569 39.0847 25.5631C40.2572 26.4693 41.1351 27.7025 41.6074 29.1071C42.0797 30.5117 42.1254 32.0248 41.7386 33.4553C41.3518 34.8858 40.5499 36.1697 39.4341 37.1449C38.3183 38.1201 36.9386 38.743 35.4691 38.9348C33.9997 39.1266 32.5064 38.8788 31.1776 38.2227C29.8489 37.5666 28.7443 36.5316 28.0032 35.2483L25.4052 36.7513C26.3269 38.3473 27.6525 39.6725 29.2488 40.5938C30.845 41.5152 32.6556 42.0001 34.4986 42C36.3416 41.9998 38.1522 41.5146 39.7483 40.5931C41.3443 39.6715 42.6698 38.3461 43.5913 36.75C44.5128 35.1539 44.9981 33.3433 44.9982 31.5003C44.9983 29.6573 44.5133 27.8467 43.592 26.2505C42.6706 24.6543 41.3454 23.3287 39.7494 22.4069C38.1534 21.4851 36.343 20.9997 34.4999 20.9993Z" fill="url(#paint1_linear_603_20)"/>
<path d="M11.2972 27.0805C10.2422 26.8818 9.15086 27.0629 8.21662 27.5918C7.28238 28.1207 6.56551 28.9632 6.19301 29.9701C5.82052 30.9769 5.81644 32.0831 6.18152 33.0927C6.54659 34.1023 7.25724 34.9501 8.18756 35.4858C9.11788 36.0216 10.2078 36.2107 11.2643 36.0198C12.3207 35.8288 13.2754 35.2701 13.9593 34.4425C14.6432 33.615 15.0121 32.5721 15.0007 31.4986C14.9892 30.4251 14.5981 29.3903 13.8967 28.5776L19.3344 19.0613L20.0814 17.7592L18.7794 17.0137C17.4903 16.2772 16.4488 15.1747 15.7868 13.8458C15.1247 12.5169 14.872 11.0214 15.0606 9.54877C15.2491 8.07614 15.8705 6.69259 16.846 5.57338C17.8215 4.45417 19.1072 3.64964 20.5403 3.26171C21.9734 2.87378 23.4894 2.91989 24.8962 3.3942C26.3031 3.86851 27.5375 4.74969 28.4432 5.92612C29.3488 7.10255 29.885 8.5213 29.9837 10.0027C30.0824 11.4841 29.7393 12.9614 28.9977 14.2476L31.5943 15.7506C32.6026 14.0044 33.0867 12.0047 32.9888 9.99059C32.8909 7.9765 32.2151 6.03319 31.0423 4.39291C29.8694 2.75263 28.2491 1.48474 26.3749 0.740782C24.5006 -0.00317914 22.4519 -0.19175 20.4733 0.197604C18.4948 0.586959 16.6703 1.53777 15.2177 2.93641C13.7651 4.33505 12.746 6.12236 12.2821 8.08474C11.8182 10.0471 11.9292 12.1016 12.6018 14.0026C13.2743 15.9036 14.48 17.5707 16.0748 18.8047C15.3893 19.9178 14.4218 21.6113 12.9652 24.1629L11.2972 27.0805Z" fill="url(#paint2_linear_603_20)"/>
<defs>
<linearGradient id="paint0_linear_603_20" x1="10.3643" y1="24.1633" x2="18.9452" y2="44.5385" gradientUnits="userSpaceOnUse">
<stop stop-color="#B221E8"/>
<stop offset="1" stop-color="#4912DF"/>
</linearGradient>
<linearGradient id="paint1_linear_603_20" x1="25.0739" y1="11.3049" x2="45.6975" y2="31.0916" gradientUnits="userSpaceOnUse">
<stop stop-color="#B221E8"/>
<stop offset="1" stop-color="#4912DF"/>
</linearGradient>
<linearGradient id="paint2_linear_603_20" x1="13.1066" y1="5.43778" x2="33.7027" y2="25.1948" gradientUnits="userSpaceOnUse">
<stop stop-color="#B221E8"/>
<stop offset="1" stop-color="#4912DF"/>
</linearGradient>
</defs>
</svg>
